<svg width="1272" height="1593" viewBox="0 0 1272 1593" fill="none" xmlns="http://www.w3.org/2000/svg">
<path d="M711.425 8.29978C677.159 28.4331 666.892 34.8332 645.825 49.0998C624.358 63.4998 598.358 82.9664 579.558 98.5664C550.758 122.566 505.025 167.9 483.559 193.9C474.625 204.7 468.358 211.1 466.225 211.633C442.758 217.366 361.692 245.1 297.558 269.233C273.292 278.3 265.558 281.366 232.892 294.7C184.092 314.833 166.492 321.9 153.558 327.1C129.425 336.7 125.958 343.5 134.758 363.766C139.825 375.233 150.225 395.5 154.892 402.833C156.492 405.366 160.892 412.833 164.758 419.5C171.958 431.633 180.892 445.633 182.358 446.833C182.758 447.233 185.692 450.966 188.758 455.366L194.492 463.1L185.958 472.033C166.225 492.433 146.358 516.7 130.758 539.5C124.358 548.966 118.225 557.5 117.425 558.433C116.625 559.233 113.025 564.966 109.558 571.1C105.958 577.233 100.358 586.966 96.8918 592.833C78.0918 624.966 64.3585 653.366 48.6251 692.833C39.5585 715.633 23.8251 765.766 17.5585 792.166C9.55847 826.033 6.0918 845.366 2.0918 878.3C-0.441535 898.833 -0.574868 901.9 1.15847 906.966C4.22513 916.166 7.02513 917.5 28.3585 918.966C47.1585 920.433 93.2918 918.833 113.558 916.166C118.758 915.5 125.025 914.966 127.692 914.833H132.492L133.292 945.1C135.158 1014.97 145.025 1081.63 161.558 1136.17C187.158 1220.83 218.758 1282.83 269.025 1346.17C309.158 1396.83 369.558 1451.1 430.225 1491.1C443.558 1499.9 452.492 1505.23 489.025 1526.17C497.825 1531.23 537.158 1550.57 552.092 1557.1C569.958 1564.97 576.358 1564.3 583.558 1553.77L586.892 1548.97L587.558 1476.3L588.225 1403.5L597.692 1418.83C603.025 1427.23 609.025 1437.77 611.292 1442.17C630.092 1479.9 642.225 1527.37 642.225 1563.37C642.225 1579.1 643.425 1582.97 650.225 1588.7C655.425 1593.1 661.559 1593.23 675.425 1589.37C758.225 1566.7 817.425 1538.3 864.892 1498.7C907.425 1463.23 936.359 1422.83 953.825 1374.83C960.092 1357.37 961.158 1356.83 960.225 1372.17C958.892 1395.63 958.092 1402.17 955.425 1413.77C951.825 1430.3 952.092 1438.17 956.225 1443.63C961.825 1450.97 973.825 1452.43 982.892 1446.83C988.492 1443.37 1018.36 1411.5 1030.23 1396.3C1053.29 1366.7 1079.16 1317.63 1088.09 1286.43C1098.36 1250.57 1102.89 1225.77 1105.16 1193.5C1106.63 1173.37 1106.49 1169.23 1103.83 1146.17C1099.69 1109.77 1090.36 1074.97 1078.09 1050.57C1075.16 1044.83 1072.89 1039.63 1072.89 1039.1C1072.89 1038.43 1076.09 1037.5 1079.96 1037.1C1104.63 1034.03 1139.96 1022.83 1168.36 1008.7C1199.96 993.233 1222.09 977.233 1250.76 949.633C1264.76 936.033 1271.56 926.966 1271.56 921.9C1271.56 918.166 1267.83 910.566 1262.23 902.566C1257.29 895.5 1237.03 865.766 1194.89 803.5C1177.03 777.1 1152.63 741.1 1140.63 723.633C1111.16 680.3 1111.29 680.433 1112.36 668.833C1112.76 663.633 1116.63 645.5 1121.03 628.566C1135.16 572.033 1135.96 546.833 1124.89 500.3C1121.96 487.9 1119.56 476.166 1119.56 474.166C1119.56 470.7 1134.76 408.433 1138.89 394.833C1140.76 388.566 1145.43 370.166 1160.09 311.366C1164.89 292.166 1172.49 262.166 1177.03 244.7C1190.09 192.966 1192.36 184.033 1202.09 144.166C1215.03 91.4998 1214.49 93.8998 1212.89 88.6998C1210.76 82.1665 1203.29 76.1665 1197.29 76.1665C1192.23 76.1665 1146.49 85.0998 1128.23 89.6331C1087.03 100.033 1041.03 116.966 988.892 141.1C975.292 147.5 962.092 153.9 959.559 155.5C957.025 157.1 947.425 162.3 938.225 167.233C929.025 172.033 911.025 182.966 898.225 191.366C885.425 199.9 873.692 206.833 872.225 206.833C870.758 206.833 865.159 204.433 859.825 201.5C854.359 198.566 843.559 193.366 835.825 190.033C827.959 186.7 820.892 183.1 820.092 182.033C819.292 181.1 817.292 174.166 815.692 166.566C808.892 134.966 797.825 100.7 787.025 77.0998C783.025 68.5665 766.492 38.5665 761.025 30.1665C753.958 19.2331 743.559 5.63307 740.092 2.9664C733.692 -2.10026 727.292 -0.900223 711.425 8.29978ZM739.025 58.1665C750.092 76.8331 761.958 101.366 767.292 116.833C773.825 135.633 784.492 176.566 788.758 199.766C794.092 228.3 796.492 248.7 798.892 283.5C801.159 317.766 801.425 340.7 799.559 363.233C794.225 427.9 795.159 422.3 789.825 423.233C740.892 431.633 688.358 440.166 687.958 439.633C687.692 439.366 688.359 432.3 689.425 423.9C692.092 404.433 693.959 384.566 694.892 366.166C695.292 358.033 695.959 345.766 696.359 338.833C697.692 313.633 693.692 245.233 687.558 192.166C686.092 180.033 684.092 162.033 682.892 152.166C680.892 134.966 677.558 109.5 676.225 100.566C675.292 95.633 676.892 93.6331 707.292 61.6331C722.625 45.6331 728.358 40.2998 729.292 41.6331C729.825 42.6998 734.225 50.0331 739.025 58.1665ZM676.758 148.833C687.692 237.633 689.425 261.233 689.425 320.166C689.425 352.7 688.892 378.433 687.825 387.5C684.892 413.766 681.825 440.833 681.692 441.1C681.559 441.233 668.892 443.5 653.558 446.166C638.092 448.7 618.625 452.033 610.225 453.633C601.825 455.1 589.825 457.1 583.558 458.166L572.225 460.033L548.225 448.166C535.025 441.633 519.025 433.1 512.625 429.366C498.759 421.1 498.892 421.366 504.225 400.566C516.758 352.566 528.892 319.9 550.225 276.833C573.958 228.966 604.759 181.1 636.092 143.366C664.625 109.1 669.692 103.233 670.492 104.033C670.892 104.433 673.692 124.566 676.758 148.833ZM614.625 115.766C600.492 132.833 567.425 178.833 555.025 198.7C539.158 224.433 518.758 261.766 510.758 280.166C507.825 287.233 504.358 294.966 503.158 297.5C501.292 301.633 495.825 315.366 487.559 336.833C482.625 349.766 472.625 383.633 470.625 394.433C469.425 400.833 467.958 405.5 467.025 405.5C464.758 405.5 420.625 375.9 419.158 373.366C417.425 370.566 424.225 354.166 439.825 323.366C459.025 285.233 482.092 249.5 507.559 218.166C527.825 193.366 530.492 190.433 552.092 168.433C577.958 142.033 617.425 107.233 619.425 108.966C619.692 109.233 617.559 112.3 614.625 115.766ZM1154.23 117.9C1154.23 118.166 1151.43 121.233 1148.09 124.966C1141.43 132.033 1128.76 146.7 1101.56 178.833C1092.09 190.033 1075.56 209.366 1064.89 221.5C1054.23 233.766 1040.49 249.766 1034.23 256.966C1018.36 275.366 994.092 301.5 993.025 301.5C992.359 301.5 983.559 293.233 973.425 283.1C955.292 265.1 929.692 243.633 913.292 232.433C908.625 229.233 904.892 226.566 904.892 226.3C904.892 226.033 909.559 222.833 915.292 219.233C981.425 176.7 1059.96 141.9 1132.89 122.833C1152.89 117.5 1154.23 117.233 1154.23 117.9ZM1164.09 159.766C1162.89 166.833 1145.43 238.033 1142.76 246.833C1141.56 250.833 1138.36 263.366 1135.56 274.833C1132.76 286.166 1126.36 312.033 1121.16 332.166C1115.96 352.3 1110.09 375.1 1108.23 382.833C1106.36 390.566 1103.56 401.366 1102.23 406.833C1090.49 451.9 1084.89 474.7 1084.89 477.5C1084.89 479.233 1087.29 489.766 1090.36 500.7C1095.83 521.1 1099.43 542.966 1099.56 556.566C1099.56 567.9 1096.23 587.9 1090.09 613.766C1087.03 626.433 1084.36 637.1 1084.09 637.366C1082.49 639.1 1067.03 613.366 1059.83 596.966C1052.89 581.1 1048.89 563.633 1048.89 548.833C1048.89 539.5 1049.96 534.566 1055.43 516.033C1059.03 504.033 1063.03 491.5 1064.09 488.3C1066.49 481.633 1075.03 447.5 1076.23 439.5C1077.03 435.1 1076.36 432.566 1072.36 424.566C1069.69 419.233 1067.56 414.3 1067.56 413.633C1067.56 409.5 1045.43 372.833 1026.63 345.5C1021.29 337.766 1016.89 330.7 1016.89 329.766C1016.89 328.833 1019.83 324.566 1023.43 320.433C1027.03 316.3 1041.56 299.366 1055.69 282.833C1069.83 266.3 1090.76 242.033 1102.23 228.966C1127.96 199.233 1160.76 160.3 1162.76 157.1C1164.89 153.766 1165.16 154.3 1164.09 159.766ZM842.892 229.5C855.159 235.5 893.158 258.7 900.225 264.433C901.692 265.633 907.158 269.766 912.225 273.633C939.292 293.9 965.958 320.433 986.492 347.5C993.825 357.366 1013.56 385.766 1015.69 389.766C1017.03 392.3 1015.29 396.566 1001.43 424.3C992.625 441.766 985.292 456.033 984.892 456.033C984.492 456.166 981.159 450.033 977.559 442.433C966.359 419.366 945.025 386.033 922.092 355.5C903.559 330.833 874.359 302.833 846.092 282.7C838.759 277.366 832.492 272.433 832.225 271.633C831.958 270.833 830.759 260.433 829.559 248.566C828.492 236.7 827.158 226.033 826.758 224.966C825.425 221.633 828.092 222.433 842.892 229.5ZM436.892 258.433C435.292 261.233 431.158 268.3 427.825 274.166C424.492 280.033 419.292 288.966 416.225 294.166C407.292 309.1 387.292 351.233 381.558 367.1C375.425 384.3 377.558 388.033 404.225 405.5C429.692 422.3 432.758 424.566 432.225 425.5C430.358 428.566 380.758 454.3 362.225 461.9C348.892 467.366 300.092 483.9 283.025 488.7L271.025 492.166L265.825 488.566C263.025 486.566 255.558 479.5 249.558 472.966L238.358 460.833L243.158 456.833C258.492 444.166 267.692 437.233 286.225 424.833C297.558 417.1 310.358 408.166 314.492 404.833C323.425 397.9 322.892 398.966 352.092 336.166C374.358 288.3 381.558 274.966 386.225 272.566C388.092 271.766 396.758 268.566 405.558 265.5C414.358 262.433 425.158 258.566 429.558 256.833C440.225 252.7 440.225 252.7 436.892 258.433ZM372.225 281.766C367.025 290.3 358.758 306.966 344.358 338.166C337.158 353.5 327.958 373.1 323.825 381.5C315.425 398.3 317.158 396.833 288.625 415.5C271.558 426.7 254.892 439.233 244.625 448.433C235.025 457.1 234.358 457.366 232.625 454.966C231.692 453.633 227.292 448.566 222.892 443.766C210.092 429.9 201.025 416.7 183.825 387.5C172.492 368.166 168.625 360.3 169.292 358.3C170.225 355.9 190.225 347.366 276.225 312.833C286.492 308.7 311.158 299.366 330.892 292.033C350.758 284.7 368.092 278.166 369.558 277.5C375.158 275.1 375.825 276.033 372.225 281.766ZM855.692 296.833C883.825 319.233 903.692 340.033 926.359 370.833C942.892 393.233 966.092 430.7 976.359 451.5L982.225 463.5L971.559 484.833C965.692 496.566 960.225 506.7 959.559 507.366C958.759 508.166 954.358 506.166 947.958 502.166C942.225 498.7 934.625 494.033 930.892 491.9C919.159 485.1 915.692 482.966 887.025 465.233C871.558 455.633 853.158 444.3 846.225 440.033C839.292 435.766 832.092 431.233 830.225 429.766L827.025 427.233L828.625 410.033C831.959 375.633 832.892 354.7 832.892 317.633V279.9L836.625 282.3C838.625 283.5 847.158 290.166 855.692 296.833ZM1036.63 460.7C1033.83 471.633 1031.16 480.966 1030.89 481.633C1030.49 482.166 1028.36 489.766 1026.09 498.433C1023.83 507.1 1020.76 518.966 1019.16 524.833C1017.03 532.833 1016.36 539.5 1016.36 551.5C1016.36 568.433 1017.69 576.433 1023.16 594.833C1030.49 619.1 1036.76 629.766 1082.89 697.5C1088.63 705.9 1104.76 729.9 1118.89 750.833C1147.43 793.366 1173.43 831.766 1189.43 855.1C1213.96 890.566 1218.89 897.9 1219.43 899.1C1219.69 899.9 1217.83 900.166 1214.76 899.633C1211.83 899.233 1199.43 897.9 1186.89 896.833C1174.49 895.766 1160.09 894.433 1155.16 894.033C1144.23 893.1 1147.69 896.966 1108.89 842.166C1091.29 817.233 1085.29 808.833 1075.56 795.5C1072.89 791.766 1064.09 779.5 1055.96 768.166C1047.96 756.833 1034.89 738.433 1026.89 727.5C1005.56 698.033 992.359 679.366 984.625 668.166C980.892 662.7 972.492 650.966 965.958 642.166C948.092 618.033 940.225 607.366 931.559 594.833C917.825 575.1 913.959 571.633 900.892 567.766C887.025 563.5 861.159 556.166 841.559 550.966C825.025 546.566 799.425 539.1 772.892 530.966C763.025 528.033 753.292 525.5 751.159 525.5C745.692 525.5 737.159 530.3 734.092 535.233C729.959 541.9 731.292 548.166 745.159 586.166C752.092 605.233 764.892 641.766 773.559 667.5C782.225 693.1 789.958 714.566 790.758 715.1C791.825 715.9 812.892 723.1 877.559 744.833C884.892 747.233 905.025 754.166 922.225 760.033C939.425 766.033 962.225 773.9 972.892 777.5C983.559 781.1 1000.09 786.833 1009.56 790.166C1019.16 793.633 1028.36 796.7 1030.09 797.1C1034.63 798.166 1041.56 805.633 1053.29 822.166C1093.56 878.7 1115.43 908.7 1121.16 915.366C1127.83 923.1 1131.56 924.833 1145.56 926.7C1162.49 928.966 1207.69 933.5 1213.29 933.5C1215.96 933.5 1218.23 934.033 1218.23 934.566C1218.23 938.7 1178.09 967.5 1158.76 977.233C1145.43 983.9 1119.83 993.5 1104.23 997.5C1047.03 1012.43 984.359 1007.9 926.892 984.566C913.559 979.1 884.892 964.7 875.025 958.433C824.625 926.7 799.825 906.033 732.225 840.166L710.892 819.366L696.225 813.5C688.225 810.3 681.158 807.366 680.492 806.833C679.958 806.433 681.825 799.1 684.758 790.7C700.225 746.033 709.692 692.966 712.892 634.833C715.559 586.033 713.825 525.233 709.292 512.433C707.692 507.766 706.225 506.166 701.692 504.166C696.092 501.633 661.025 490.033 647.159 486.166C642.759 484.833 639.825 483.366 640.492 482.833C641.025 482.3 648.758 480.833 657.558 479.5C674.092 477.233 720.759 469.366 772.359 460.033C788.492 457.233 802.892 454.833 804.359 454.833C807.025 454.833 820.759 462.966 845.559 479.1C852.892 483.766 861.559 489.233 864.892 491.1C873.692 496.033 933.559 531.633 942.892 537.5C961.425 549.233 969.425 551.1 976.092 545.1C978.092 543.5 991.559 518.166 1007.29 486.7C1022.63 456.166 1035.69 430.433 1036.23 429.5C1036.89 428.433 1038.09 430.166 1039.56 434.3L1041.83 440.833L1036.63 460.7ZM462.225 461.233V483.633L449.958 491.366C424.225 507.366 390.492 522.166 339.558 539.5C288.092 556.966 291.825 556.166 286.092 551.233C283.558 549.1 279.158 545.633 276.225 543.5C268.492 537.9 255.558 526.566 255.558 525.5C255.558 524.966 259.292 523.766 263.958 522.833C268.492 522.033 274.892 520.433 278.225 519.5C359.292 495.366 408.358 474.833 445.158 449.5C453.425 443.766 460.625 439.1 461.292 438.966C461.825 438.833 462.225 448.966 462.225 461.233ZM477.958 442.7C481.958 445.366 521.692 468.166 522.625 468.166C523.025 468.166 530.892 471.766 540.092 476.166C564.358 487.633 603.558 502.566 627.558 509.5C653.825 517.1 678.225 524.833 678.225 525.633C678.225 526.033 673.292 530.566 667.292 535.5C661.158 540.566 653.692 546.966 650.625 549.9L645.025 555.233L637.292 553.1C630.225 551.233 599.292 540.7 571.558 530.7C553.958 524.3 538.359 518.033 529.159 513.5C524.625 511.366 520.492 509.5 519.958 509.5C519.558 509.5 508.492 503.766 495.425 496.7L471.559 483.9V462.033C471.559 447.1 471.958 440.166 473.025 440.166C473.825 440.166 476.092 441.233 477.958 442.7ZM225.558 495.5L231.825 502.833L228.492 506.833C225.958 509.766 224.892 512.966 224.358 519.1C222.092 542.3 220.892 571.366 220.892 598.433C220.892 626.7 220.758 629.1 217.692 638.7C209.958 662.433 199.292 696.966 192.092 721.233L188.358 733.5L129.692 732.7C97.2918 732.166 70.7585 731.633 70.4918 731.5C69.9585 731.1 78.6251 707.366 84.2251 693.5C114.358 620.033 153.292 557.366 201.958 503.9C209.825 495.233 216.892 488.3 217.825 488.166C218.625 488.166 222.225 491.5 225.558 495.5ZM464.358 947.9C463.558 948.566 444.892 934.433 430.092 921.9C397.692 894.7 361.292 848.3 344.225 812.7C337.158 797.9 324.758 766.7 321.158 754.166C312.758 725.9 304.092 679.9 301.425 650.166C298.892 621.633 297.825 584.033 299.158 574.166L300.225 566.166L316.225 561.1C325.025 558.3 337.958 554.166 344.892 551.9C377.692 541.5 438.758 514.7 456.225 502.966L464.225 497.633L464.625 722.433C464.758 846.166 464.625 947.5 464.358 947.9ZM473.425 498.7C474.225 499.9 481.558 504.166 500.225 514.3C520.358 525.1 565.825 543.366 606.892 556.833L636.225 566.566L637.025 574.3C639.158 594.433 635.692 649.5 630.092 684.033C618.625 754.566 601.159 802.166 568.625 850.566C548.892 880.033 516.758 912.833 482.625 938.566C470.758 947.5 468.092 948.566 469.425 943.766C469.825 942.166 470.225 841.1 470.225 719.1C470.225 581.5 470.758 497.5 471.425 497.5C472.225 497.5 473.025 498.033 473.425 498.7ZM273.825 553.366L286.225 563.1V593.9C286.092 610.966 286.758 632.3 287.558 641.5C291.292 684.7 303.692 747.1 314.092 774.166C323.292 798.433 327.158 807.5 334.892 822.7C344.625 841.766 360.225 865.9 373.292 882.166C394.358 908.3 430.358 941.766 455.292 958.3L462.225 962.966V984.3C462.225 995.9 461.958 1005.5 461.425 1005.5C459.958 1005.5 438.225 991.1 425.558 981.633C404.892 966.3 389.292 952.433 369.425 931.766C338.225 899.233 315.158 866.166 297.158 828.3C262.892 755.366 248.625 683.9 248.492 583.5C248.492 559.233 248.892 538.033 249.558 536.3C250.492 533.233 250.492 533.233 256.092 538.433C259.025 541.366 267.158 548.033 273.825 553.366ZM686.758 583.5C686.758 665.9 678.759 722.833 658.092 784.566C651.425 804.433 637.559 834.966 628.892 849.1C603.559 889.766 595.959 900.433 576.625 922.433C557.959 943.766 528.225 970.033 505.559 985.366C491.559 994.833 474.092 1005.5 472.492 1005.5C471.958 1005.5 471.559 995.9 471.559 984.166V962.833L481.958 956.033C512.625 935.766 548.892 901.633 570.359 872.833C602.092 830.433 626.492 774.7 637.425 720.033C647.159 670.966 650.225 633.5 650.225 564.033C650.225 562.833 654.892 558.033 660.625 553.366C666.225 548.7 673.825 542.3 677.425 539.1C684.092 533.366 684.092 533.233 685.425 536.433C686.092 538.166 686.758 558.033 686.758 583.5ZM769.958 593.366C812.225 642.566 822.225 650.033 858.225 658.3C929.958 674.966 950.892 680.166 953.159 682.566C955.159 684.7 1008.89 759.366 1023.83 780.833C1027.43 785.9 1029.83 790.3 1029.16 790.566C1028.49 790.7 1023.83 789.366 1018.76 787.366C1010.09 784.033 963.159 767.9 933.559 758.166C926.225 755.633 913.692 751.366 905.559 748.433C897.559 745.5 869.559 736.166 843.559 727.5C817.559 718.833 795.692 711.233 795.025 710.7C793.825 709.633 781.559 675.1 765.559 627.5C760.092 611.366 752.625 590.166 748.892 580.3C745.292 570.433 742.225 562.033 742.225 561.633C742.358 561.233 744.625 563.5 747.292 566.7C749.958 570.033 760.225 582.033 769.958 593.366ZM830.225 582.566C844.625 586.966 864.358 592.433 874.225 594.833L892.225 599.366L897.692 606.033C906.359 616.833 920.092 637.366 919.292 638.3C918.759 638.7 906.492 636.3 891.958 632.833C877.425 629.366 861.425 625.766 856.492 624.7C851.425 623.766 845.425 621.766 843.159 620.3C836.225 616.033 799.559 578.166 799.559 575.366C799.559 573.9 806.758 575.633 830.225 582.566ZM231.558 718.566C231.558 723.5 239.958 755.1 246.492 774.833C255.958 803.5 263.958 824.033 271.292 838.566C275.825 847.633 277.025 851.233 275.825 852.033C272.892 853.766 208.892 869.366 190.225 872.833C162.625 877.9 143.692 880.7 142.758 879.766C141.292 878.433 142.225 851.1 144.358 832.166C146.225 814.833 149.825 791.1 153.292 774.166L154.892 766.166L181.825 766.7L208.758 767.233L212.625 763.366C215.558 760.3 217.692 754.833 222.892 737.233C228.625 717.633 231.558 711.366 231.558 718.566ZM148.892 768.033C148.892 769.5 147.692 775.633 146.225 781.766C141.425 802.566 138.092 829.633 137.292 855.766C136.892 869.9 136.092 881.5 135.692 881.5C135.292 881.5 126.225 882.433 115.558 883.366C94.8918 885.5 73.2918 886.7 49.5585 887.233L34.8918 887.5L35.2918 881.5C36.6251 861.9 51.8251 783.9 57.5585 767.1C57.9585 765.9 68.3585 765.5 103.558 765.5C147.425 765.5 148.892 765.633 148.892 768.033ZM692.892 850.033C695.559 851.766 708.092 863.5 720.892 876.166C733.692 888.833 753.292 907.233 764.492 917.1C775.558 926.833 785.025 935.9 785.425 937.233C785.825 938.433 787.959 947.233 790.092 956.833C794.225 974.433 804.225 1004.57 814.092 1029.1C828.359 1064.97 851.292 1104.57 884.359 1150.83C915.425 1194.43 945.025 1253.23 945.025 1271.63C945.025 1278.83 944.892 1280.17 940.625 1303.5C936.359 1326.83 927.559 1355.63 927.559 1346.17C927.559 1341.63 910.892 1295.1 900.892 1271.63C886.625 1237.77 865.825 1196.97 845.292 1161.5C838.225 1149.37 835.958 1147.63 801.958 1130.3C788.225 1123.37 769.958 1113.9 761.292 1109.37C752.625 1104.83 738.092 1097.23 728.892 1092.43C719.692 1087.77 711.159 1082.83 709.825 1081.63C708.492 1080.57 705.159 1075.63 702.625 1070.83C697.825 1062.3 674.225 1022.83 659.825 999.5C655.692 992.833 643.158 973.5 631.825 956.433C608.758 921.633 609.958 925.766 619.692 914.033C629.292 902.566 653.159 865.1 661.425 848.566L666.225 838.966L677.159 842.966C683.292 845.233 690.359 848.433 692.892 850.033ZM302.892 895.1C312.358 909.5 324.358 924.7 341.825 944.833C366.625 973.1 417.292 1013.23 455.425 1034.7C467.025 1041.23 467.558 1041.23 481.425 1033.23C486.625 1030.3 494.358 1025.77 498.492 1023.37C508.492 1017.77 529.158 1002.43 543.958 989.9L555.558 979.9L555.292 1060.43L554.892 1140.83L548.225 1140.43C541.558 1140.03 513.692 1137.23 490.892 1134.83C484.358 1134.03 471.692 1132.83 462.892 1132.17C410.358 1127.63 367.692 1123.77 345.558 1121.37C331.558 1119.77 316.892 1118.97 312.892 1119.37L305.425 1120.03L299.825 1102.43C289.692 1070.17 283.425 1040.83 279.292 1006.17C277.425 990.033 276.892 898.966 278.625 890.7C279.425 886.566 280.358 885.766 285.958 883.9C289.425 882.833 292.625 881.766 293.025 881.633C293.425 881.633 297.958 887.633 302.892 895.1ZM272.092 899.1C270.892 912.166 271.025 971.766 272.225 988.833C275.158 1029.5 283.692 1072.3 295.692 1106.83L301.025 1122.17L300.892 1146.17C300.758 1168.3 302.625 1234.3 304.225 1266.17C304.492 1273.5 305.158 1288.17 305.558 1298.83C305.958 1309.5 306.625 1322.57 307.025 1328.03C307.558 1333.77 307.292 1337.63 306.625 1337.37C304.625 1336.57 291.292 1320.3 279.425 1304.03C263.558 1282.57 254.892 1268.7 238.625 1238.83C220.758 1206.17 202.358 1158.83 190.358 1114.83C174.758 1057.63 168.358 1011.5 166.625 945.366C165.692 906.566 164.492 910.566 177.558 908.833C191.692 906.966 244.625 895.633 261.558 890.966C266.758 889.633 271.425 888.3 272.092 888.3C272.625 888.166 272.758 893.1 272.092 899.1ZM601.159 972.833C625.025 1008.03 638.492 1028.83 649.425 1047.5C655.959 1058.43 664.358 1072.97 668.225 1079.5C692.092 1120.03 740.092 1217.5 736.225 1217.5C735.825 1217.5 728.758 1212.83 720.492 1207.1C692.225 1187.5 678.892 1178.83 677.292 1178.83C676.358 1178.83 675.292 1180.17 674.892 1181.77C673.959 1185.77 668.225 1220.3 663.558 1250.17C661.425 1263.37 656.092 1296.03 651.558 1322.83C647.158 1349.63 641.959 1381.1 640.092 1392.83C638.225 1404.57 636.492 1414.3 636.359 1414.43C636.225 1414.57 632.359 1409.1 627.692 1402.17C619.425 1389.77 602.225 1369.9 592.625 1361.5L587.558 1357.23V1155.77C587.558 985.1 587.825 954.566 589.425 956.166C590.359 957.233 595.692 964.7 601.159 972.833ZM836.359 973.366C857.692 988.7 907.425 1014.57 929.425 1021.63C961.959 1032.17 982.092 1036.7 1005.56 1038.83C1015.16 1039.77 1026.23 1040.83 1030.23 1041.23L1037.43 1042.17L1046.49 1061.5C1054.76 1079.5 1064.89 1106.7 1064.89 1111.23C1064.89 1116.03 1034.36 1124.03 1012.23 1125.1C995.025 1125.9 977.825 1123.23 960.625 1117.23C956.225 1115.77 952.225 1115.1 951.559 1115.63C951.025 1116.3 951.292 1122.83 952.359 1130.17C955.692 1155.63 962.225 1210.3 962.225 1213.63C962.225 1215.63 959.559 1211.37 955.159 1202.17C946.492 1184.43 930.092 1157.23 914.892 1135.5C870.359 1071.9 855.959 1046.3 840.092 1003.1C833.825 985.633 828.892 969.5 830.092 969.5C830.625 969.5 833.425 971.233 836.359 973.366ZM728.625 1098.7C739.692 1104.83 759.692 1115.37 807.559 1139.77C822.092 1147.23 831.025 1152.7 833.825 1155.77C841.692 1164.3 869.825 1216.7 886.892 1254.17C902.892 1289.5 918.759 1332.57 922.359 1350.43C923.825 1357.77 923.825 1359.63 921.692 1366.43C917.425 1380.03 895.159 1420.03 887.425 1428.17C886.359 1429.23 883.159 1433.23 880.359 1436.83C869.559 1450.7 825.958 1489.9 824.492 1487.1C824.225 1486.57 824.492 1479.23 825.159 1470.83C828.359 1429.63 820.225 1362.7 805.559 1308.17C791.825 1257.37 764.358 1190.17 729.025 1120.97C720.892 1105.1 714.892 1092.17 715.692 1092.17C716.359 1092.17 722.225 1095.1 728.625 1098.7ZM1068.63 1129.1C1072.49 1154.97 1073.16 1165.63 1072.49 1186.17C1071.43 1214.97 1066.23 1247.1 1059.69 1266.57C1046.63 1305.23 1031.03 1337.23 1012.49 1362.83C1003.29 1375.63 995.292 1385.5 994.225 1385.5C993.825 1385.5 993.425 1374.57 993.425 1361.1C993.159 1323.1 986.759 1284.97 973.692 1242.97C971.025 1234.7 968.892 1226.17 968.892 1224.03C968.892 1222.03 967.692 1210.57 966.225 1198.57C964.758 1186.57 962.359 1166.03 960.892 1152.83C959.425 1139.63 957.825 1127.37 957.425 1125.63C956.892 1122.83 957.159 1122.57 959.825 1123.5C968.492 1126.17 992.225 1130.57 1000.89 1131.1C1019.69 1132.3 1043.56 1128.43 1057.56 1122.03C1061.29 1120.43 1064.89 1118.97 1065.69 1118.97C1066.49 1118.83 1067.83 1123.5 1068.63 1129.1ZM380.892 1158.83C396.625 1160.43 418.225 1162.57 428.892 1163.63C439.558 1164.7 453.692 1165.9 460.225 1166.3C477.692 1167.63 478.492 1168.17 469.958 1172.83C466.092 1174.83 454.492 1181.37 444.225 1187.23C433.958 1193.1 423.958 1198.7 422.092 1199.77C420.092 1200.7 417.825 1202.43 417.025 1203.37C415.825 1204.7 415.958 1221.9 417.425 1271.63C418.625 1308.3 419.825 1350.7 420.225 1366.17C420.758 1381.5 421.558 1405.23 422.225 1418.7C422.892 1432.3 423.292 1443.63 422.892 1443.9C420.892 1445.9 388.492 1419.63 355.292 1389.1L340.892 1375.9V1358.97C340.892 1349.77 339.958 1319.37 338.892 1291.5C337.825 1263.63 336.625 1230.3 336.092 1217.5C335.692 1204.7 334.892 1185.23 334.358 1174.43C333.958 1163.5 333.692 1154.43 333.825 1154.3C334.092 1154.17 338.225 1154.43 343.158 1155.1C348.225 1155.63 365.158 1157.37 380.892 1158.83ZM504.892 1170.7C513.292 1171.5 526.892 1172.43 534.892 1172.97C543.025 1173.37 550.492 1174.03 551.558 1174.3C552.625 1174.43 553.958 1174.7 554.492 1174.7C555.158 1174.83 554.359 1518.83 553.692 1519.77C553.559 1519.9 545.958 1516.57 536.758 1512.3C507.558 1498.83 477.958 1481.77 442.092 1457.9L429.158 1449.37L428.358 1433.1C427.958 1424.17 427.025 1393.77 426.225 1365.5C425.425 1337.23 424.225 1295.9 423.558 1273.5C422.758 1251.1 422.225 1226.83 422.225 1219.37C422.225 1206.17 422.225 1205.9 425.825 1204.03C427.825 1202.97 438.758 1196.83 450.225 1190.3C477.558 1174.57 486.625 1169.5 488.225 1169.5C489.025 1169.5 496.492 1170.03 504.892 1170.7ZM685.825 1189.9C687.825 1191.63 697.025 1198.03 706.225 1204.17C733.825 1222.7 737.825 1225.5 740.625 1228.57C744.759 1233.1 762.359 1277.37 767.425 1296.17C769.159 1302.43 772.225 1313.5 774.359 1320.7C782.492 1348.7 789.292 1390.43 790.892 1422.7C791.292 1430.43 791.825 1439.77 792.225 1443.5C792.892 1450.57 791.025 1490.3 789.425 1502.83L788.625 1510.3L775.025 1517.1C754.625 1527.63 741.959 1533.1 722.892 1540.03C704.092 1546.97 677.025 1555.37 676.359 1554.7C676.225 1554.43 675.025 1546.3 673.692 1536.83C668.492 1497.37 661.158 1469.77 647.958 1440.43L640.492 1424.03L642.625 1411.77C645.959 1391.77 660.892 1302.57 661.425 1298.17C661.825 1295.9 663.559 1285.5 665.425 1274.83C668.225 1259.23 674.358 1221.9 679.025 1191.77C679.958 1186.03 680.759 1185.77 685.825 1189.9Z" fill="black"/>
</svg>
